PathFileType	4	(X/Y/Z)	/Users/niels/Desktop/University/Third Semester/Perception and Action/Exam/Gymnastics Motion Tracking/Code for Gym Tracking/Scripts/Analyzed Data/Start Salto/st_salto_bad_id9_2_Sports2D/st_salto_bad_id9_2_Sports2D_px_person00.trc
DataRate	CameraRate	NumFrames	NumMarkers	Units	OrigDataRate	OrigDataStartFrame	OrigNumFrames
29.871244635193133	29.871244635193133	7	22	m	29.871244635193133	203	233
Frame#	Time	Hip			RHip			RKnee			RAnkle			RBigToe			RSmallToe			RHeel			LHip			LKnee			LAnkle			LBigToe			LSmallToe			LHeel			Neck			Head			Nose			RShoulder			RElbow			RWrist			LShoulder			LElbow			LWrist		
		X1	Y1	Z1	X2	Y2	Z2	X3	Y3	Z3	X4	Y4	Z4	X5	Y5	Z5	X6	Y6	Z6	X7	Y7	Z7	X8	Y8	Z8	X9	Y9	Z9	X10	Y10	Z10	X11	Y11	Z11	X12	Y12	Z12	X13	Y13	Z13	X14	Y14	Z14	X15	Y15	Z15	X16	Y16	Z16	X17	Y17	Z17	X18	Y18	Z18	X19	Y19	Z19	X20	Y20	Z20	X21	Y21	Z21	X22	Y22	Z22
203	6.795833333333333	1.3718329452925189	-0.37212278358895545	0.0	1.3778358290263737	-0.3682476493594106	0.0	1.5292085918143639	-0.34664220163885057	0.0	1.614216866796976	-0.4631233493688085	0.0	1.6803102052676813	-0.4545293087109693	0.0	1.6720022922395716	-0.4704773109970296	0.0	1.6122315316025002	-0.48394726011114775	0.0	1.3773940894945218	-0.3723644760612185	0.0	1.5255421935367732	-0.3446242621565529	0.0	1.6078044859168201	-0.4534137608622938	0.0	1.6733922493719116	-0.4463130640149384	0.0	1.6614950348715924	-0.45484430265540843	0.0	1.6042267140187991	-0.4813193163246678	0.0	1.2577782626809628	-0.2328996944824913	0.0	1.2441015917015386	-0.15622066709070923	0.0	1.2881385549700848	-0.19354318240299778	0.0	1.2648939539324753	-0.2339142765628856	0.0	1.319713434961405	-0.2938433400748584	0.0	1.403747871613399	-0.28165456686955764	0.0	1.238430868612442	-0.24695456371024022	0.0	1.3130654104537154	-0.3001071335482753	0.0	1.3865896792705013	-0.2933281256874154	0.0
204	6.8293103448275865	1.38016171779302	-0.3750737678588234	0.0	1.3859314346959186	-0.3701231366681457	0.0	1.5386983609483609	-0.36532771659191643	0.0	1.6186426147839437	-0.48609824379774347	0.0	1.6845272599138474	-0.48510158510103213	0.0	1.6751688720540185	-0.4991991588805406	0.0	1.615314798065786	-0.5072914417412687	0.0	1.3851773284806403	-0.3774034469706422	0.0	1.5350366766577002	-0.3635208543187422	0.0	1.6142427937164423	-0.4772997693798439	0.0	1.6811518276609039	-0.4775602066782483	0.0	1.667973832594849	-0.4857600376828878	0.0	1.609307794952332	-0.5051364113503349	0.0	1.2686241186120077	-0.2328591821628474	0.0	1.2572230492304264	-0.15581001793272858	0.0	1.30027200547754	-0.19260744376594147	0.0	1.2763910997751793	-0.2334797943059814	0.0	1.320183383424393	-0.2961812895859006	0.0	1.408361143790894	-0.2890305337242551	0.0	1.247423994421114	-0.24842063571508188	0.0	1.3097659645643378	-0.3105358953487324	0.0	1.380027357340646	-0.30406074991459425	0.0
205	6.86278735632184	1.3886228980238775	-0.3781278396857636	0.0	1.3945006158362054	-0.3719043694941673	0.0	1.5469389980045394	-0.3834165146819391	0.0	1.622003680100416	-0.508217025773585	0.0	1.6875382250054138	-0.5144851773265924	0.0	1.6775680221937601	-0.5264322010657463	0.0	1.6176603929153681	-0.5295304314962264	0.0	1.3932150445058435	-0.3825188702954241	0.0	1.543259213296733	-0.3824058118409163	0.0	1.619027531478041	-0.5003148870577692	0.0	1.6869981278916326	-0.5078119671269569	0.0	1.6728031589069234	-0.5149155038503349	0.0	1.6133426609080659	-0.5279159153815481	0.0	1.279270639529275	-0.23369718807335021	0.0	1.2703831801354477	-0.15565584927102682	0.0	1.3126177951086788	-0.19207965349467368	0.0	1.2878745723334473	-0.23342036739428926	0.0	1.320663091324937	-0.29820527360748217	0.0	1.4124582924140938	-0.29653411770514293	0.0	1.2561208791363527	-0.25143312974082643	0.0	1.304220571624398	-0.3234837190309973	0.0	1.369809957724935	-0.31678367934160895	0.0
206	6.896264367816093	1.3974684120642176	-0.3814940439033681	0.0	1.403587137450139	-0.37423829369158196	0.0	1.5539378405046622	-0.40120151257592057	0.0	1.624411178808148	-0.5297741851885168	0.0	1.6893466011405553	-0.5424273671779155	0.0	1.6792807512046592	-0.552372290563806	0.0	1.6193150759797763	-0.5507826495604284	0.0	1.4015796867394115	-0.3875654360975355	0.0	1.5502265907475805	-0.40112357456442815	0.0	1.6223122221790478	-0.5226022099933384	0.0	1.6908914220718902	-0.5362858791888382	0.0	1.676124188798465	-0.5420880996160664	0.0	1.616195038510495	-0.5497385847128855	0.0	1.2897865093225538	-0.23541996655402728	0.0	1.2839221165638133	-0.15594840390145237	0.0	1.325062880992435	-0.1925242477642687	0.0	1.2992451329328893	-0.23396270620392431	0.0	1.3213601812799836	-0.30004780163692124	0.0	1.4157697234890145	-0.30413275911992993	0.0	1.264822399791156	-0.2555295438955281	0.0	1.2982657542440694	-0.33719057817607584	0.0	1.3594633199890813	-0.3300730963715738	0.0
207	6.929741379310345	1.4072148342990338	-0.38563346324302566	0.0	1.4135992649816447	-0.37773152797720794	0.0	1.560047825503227	-0.4196091672625538	0.0	1.6260076706141586	-0.5517255164539742	0.0	1.6900030163966628	-0.5696639632000272	0.0	1.680316015324638	-0.5779714046070782	0.0	1.6202946440165538	-0.5719802069093705	0.0	1.410406587717849	-0.3928671216621432	0.0	1.5560790486972629	-0.4202529075582021	0.0	1.6242024904780978	-0.5450875336838144	0.0	1.6926058191416304	-0.5635179601716084	0.0	1.6777342065402168	-0.5682061474154472	0.0	1.6175940834431715	-0.5714217069654237	0.0	1.3005480361489095	-0.23800808227429346	0.0	1.2985681722262334	-0.15703784357225525	0.0	1.3377829284750808	-0.1944379807596498	0.0	1.3108004348114608	-0.23534818532299623	0.0	1.3225435563081052	-0.30198389096408124	0.0	1.418238778629673	-0.31201829658613306	0.0	1.274058866607535	-0.26011229770026306	0.0	1.2938141196465318	-0.34952287782732777	0.0	1.353074151471099	-0.34250827044014065	0.0
208	6.963218390804598	1.4183123581517343	-0.3910247631030139	0.0	1.4250718725339995	-0.382721701517213	0.0	1.5656788331918112	-0.4395082612087803	0.0	1.6268381036574973	-0.5749972031606598	0.0	1.6894262417504982	-0.5972194889451408	0.0	1.6804791883839583	-0.6042476318392488	0.0	1.6205432117840277	-0.594196775747281	0.0	1.419784901586993	-0.39899805805313276	0.0	1.5609668857251748	-0.44062683970493227	0.0	1.6247336765000266	-0.5687117708423683	0.0	1.6920028670290397	-0.5907061446540024	0.0	1.6773622920078068	-0.5946452412309592	0.0	1.6173373559225168	-0.5938947048154477	0.0	1.3120601781080172	-0.2414719865020152	0.0	1.3150369213774167	-0.15923010731379522	0.0	1.3511599919927657	-0.19795784415216036	0.0	1.323024224733142	-0.2377962093392678	0.0	1.3245665893390806	-0.30434500601317904	0.0	1.4200359350324854	-0.3205005157475166	0.0	1.284355353165011	-0.26470265907451385	0.0	1.2919242349591236	-0.3590814625732227	0.0	1.3521769903878273	-0.35378787715905097	0.0
209	6.996695402298851	1.4307728196542395	-0.3979805697269654	0.0	1.4382396807299624	-0.38925757195655863	0.0	1.5709861621800734	-0.46109861988370204	0.0	1.626800832249345	-0.5998281428287793	0.0	1.6875067632862422	-0.625605607617281	0.0	1.6794844946311784	-0.631619510845652	0.0	1.619882076425446	-0.6179555930469559	0.0	1.4295653457416442	-0.4064714347304954	0.0	1.5648961173014873	-0.46262911850669086	0.0	1.623857461994403	-0.5936951443226118	0.0	1.6892635556197517	-0.6186033456837609	0.0	1.6749366883027845	-0.6221786356692224	0.0	1.6153714051061308	-0.6175190740079045	0.0	1.324722215648828	-0.24582540418548693	0.0	1.3335264476805824	-0.1626928451629087	0.0	1.3655796295247744	-0.20284749223204007	0.0	1.3362938585117716	-0.24147121934091617	0.0	1.3278791820783782	-0.30750657975646944	0.0	1.4215333901655596	-0.32994139311529364	0.0	1.2960300850681432	-0.26915284300673853	0.0	1.2927301584918032	-0.3656552181183494	0.0	1.3553353645408508	-0.36486525382791496	0.0
